<svg xmlns="http://www.w3.org/2000/svg" viewBox="0 0 640 480" width="640" height="480">
  <defs>
    <linearGradient id="bg" x1="0" y1="0" x2="1" y2="1">
      <stop offset="0%" stop-color="#16161e"/>
      <stop offset="100%" stop-color="#0c0c10"/>
    </linearGradient>
    <linearGradient id="bubble" x1="0" y1="0" x2="1" y2="1">
      <stop offset="0%" stop-color="#25D366"/>
      <stop offset="100%" stop-color="#128C7E"/>
    </linearGradient>
  </defs>
  <rect width="640" height="480" rx="20" fill="url(#bg)"/>

  <!-- inbox column -->
  <rect x="28" y="28" width="240" height="424" rx="14" fill="#14141b" stroke="#272730"/>
  <rect x="46" y="50" width="140" height="14" rx="7" fill="#9a9aa6" opacity=".5"/>
  <g font-family="sans-serif">
    <rect x="46" y="86" width="204" height="64" rx="12" fill="#1c1c25" stroke="#272730"/>
    <circle cx="70" cy="118" r="14" fill="#E2A23B"/>
    <rect x="94" y="104" width="120" height="10" rx="5" fill="#e9e9ee" opacity=".8"/>
    <rect x="94" y="122" width="90" height="8" rx="4" fill="#9a9aa6" opacity=".6"/>

    <rect x="46" y="160" width="204" height="64" rx="12" fill="#22222c" stroke="#E2A23B"/>
    <circle cx="70" cy="192" r="14" fill="#38bdf8"/>
    <rect x="94" y="178" width="120" height="10" rx="5" fill="#e9e9ee" opacity=".9"/>
    <rect x="94" y="196" width="90" height="8" rx="4" fill="#9a9aa6" opacity=".7"/>

    <rect x="46" y="234" width="204" height="64" rx="12" fill="#1c1c25" stroke="#272730"/>
    <circle cx="70" cy="266" r="14" fill="#f0c070"/>
    <rect x="94" y="252" width="120" height="10" rx="5" fill="#e9e9ee" opacity=".8"/>
    <rect x="94" y="270" width="90" height="8" rx="4" fill="#9a9aa6" opacity=".6"/>
  </g>

  <!-- conversation column -->
  <rect x="292" y="28" width="320" height="252" rx="14" fill="#14141b" stroke="#272730"/>
  <g>
    <rect x="312" y="50" width="220" height="34" rx="16" fill="#1c1c25"/>
    <rect x="326" y="62" width="150" height="10" rx="5" fill="#e9e9ee" opacity=".75"/>

    <rect x="312" y="98" width="240" height="46" rx="16" fill="url(#bubble)"/>
    <rect x="326" y="112" width="180" height="10" rx="5" fill="#ffffff" opacity=".92"/>
    <rect x="326" y="128" width="120" height="8" rx="4" fill="#ffffff" opacity=".7"/>

    <rect x="332" y="158" width="240" height="46" rx="16" fill="#22222c" stroke="#272730"/>
    <rect x="348" y="172" width="170" height="10" rx="5" fill="#e9e9ee" opacity=".85"/>
    <rect x="348" y="188" width="110" height="8" rx="4" fill="#9a9aa6" opacity=".6"/>

    <rect x="312" y="218" width="240" height="34" rx="16" fill="url(#bubble)" opacity=".9"/>
    <rect x="326" y="230" width="140" height="10" rx="5" fill="#ffffff" opacity=".9"/>
  </g>

  <!-- pipeline kanban -->
  <rect x="292" y="296" width="320" height="156" rx="14" fill="#14141b" stroke="#272730"/>
  <g>
    <rect x="312" y="314" width="88" height="120" rx="10" fill="#1c1c25" stroke="#272730"/>
    <rect x="324" y="326" width="60" height="8" rx="4" fill="#E2A23B"/>
    <rect x="324" y="346" width="64" height="34" rx="8" fill="#22222c"/>
    <rect x="324" y="388" width="64" height="34" rx="8" fill="#22222c"/>

    <rect x="410" y="314" width="88" height="120" rx="10" fill="#1c1c25" stroke="#272730"/>
    <rect x="422" y="326" width="60" height="8" rx="4" fill="#38bdf8"/>
    <rect x="422" y="346" width="64" height="34" rx="8" fill="#22222c"/>

    <rect x="508" y="314" width="88" height="120" rx="10" fill="#1c1c25" stroke="#272730"/>
    <rect x="520" y="326" width="60" height="8" rx="4" fill="#9ece6a"/>
    <rect x="520" y="346" width="64" height="34" rx="8" fill="#22222c"/>
    <rect x="520" y="388" width="64" height="34" rx="8" fill="#22222c"/>
  </g>
</svg>
